<svg width="175" height="49" viewBox="0 0 175 49" fill="none" xmlns="http://www.w3.org/2000/svg">
<rect x="0.347412" y="0.642578" width="174.51" height="47.9343" rx="23.9671" fill="#3CD8E8"/>
<path d="M22.2055 21.6781V30.0225H20.8249V19.1318H21.9907L28.6478 27.6449V19.1471H30.0283V30.0225H28.7705L22.2055 21.6781ZM35.7765 30.1759C35.1732 30.1759 34.6261 30.0685 34.1352 29.8537C33.6444 29.6288 33.22 29.3271 32.8621 28.9487C32.5042 28.5601 32.2281 28.1153 32.0338 27.6142C31.8395 27.1132 31.7423 26.5865 31.7423 26.0343C31.7423 25.4719 31.8395 24.9401 32.0338 24.4391C32.2281 23.938 32.5042 23.4983 32.8621 23.1199C33.22 22.7313 33.6444 22.4297 34.1352 22.2149C34.6363 21.99 35.1885 21.8775 35.7918 21.8775C36.3849 21.8775 36.9269 21.99 37.4178 22.2149C37.9086 22.4297 38.333 22.7313 38.6909 23.1199C39.059 23.4983 39.3402 23.938 39.5345 24.4391C39.7288 24.9401 39.826 25.4719 39.826 26.0343C39.826 26.5865 39.7288 27.1132 39.5345 27.6142C39.3402 28.1153 39.0641 28.5601 38.7062 28.9487C38.3483 29.3271 37.9188 29.6288 37.4178 29.8537C36.9269 30.0685 36.3798 30.1759 35.7765 30.1759ZM33.1228 26.0497C33.1228 26.6019 33.2404 27.1029 33.4756 27.5529C33.7211 28.0028 34.0432 28.3607 34.442 28.6266C34.8408 28.8823 35.2856 29.0101 35.7765 29.0101C36.2673 29.0101 36.7122 28.8772 37.111 28.6113C37.52 28.3454 37.8421 27.9875 38.0773 27.5375C38.3228 27.0774 38.4455 26.5712 38.4455 26.019C38.4455 25.4668 38.3228 24.9657 38.0773 24.5158C37.8421 24.0658 37.52 23.7079 37.111 23.442C36.7122 23.1762 36.2673 23.0432 35.7765 23.0432C35.2856 23.0432 34.8408 23.1813 34.442 23.4574C34.0432 23.7233 33.7211 24.0812 33.4756 24.5311C33.2404 24.9811 33.1228 25.4872 33.1228 26.0497ZM43.4928 30.0225L40.3483 22.0155H41.7595L44.2751 28.734L46.7907 22.0155H48.1099L44.9654 30.0225H43.4928ZM52.7343 30.1759C52.131 30.1759 51.5788 30.0685 51.0777 29.8537C50.5869 29.6288 50.1574 29.3271 49.7892 28.9487C49.4313 28.5601 49.1501 28.1153 48.9456 27.6142C48.7513 27.1132 48.6542 26.5814 48.6542 26.019C48.6542 25.2623 48.828 24.572 49.1757 23.9482C49.5234 23.3244 50.004 22.8234 50.6175 22.445C51.2413 22.0666 51.952 21.8775 52.7497 21.8775C53.5575 21.8775 54.258 22.0718 54.8511 22.4603C55.4544 22.8387 55.9197 23.3398 56.2469 23.9636C56.5844 24.5771 56.7531 25.2418 56.7531 25.9576C56.7531 26.0599 56.748 26.1622 56.7378 26.2644C56.7378 26.3564 56.7327 26.428 56.7224 26.4792H50.0807C50.1216 27.0007 50.2647 27.466 50.5102 27.875C50.7658 28.2738 51.093 28.5908 51.4919 28.826C51.8907 29.051 52.3202 29.1635 52.7803 29.1635C53.2712 29.1635 53.7313 29.0408 54.1608 28.7953C54.6006 28.5499 54.9022 28.2278 55.0658 27.829L56.2316 28.1511C56.0578 28.5397 55.797 28.8874 55.4493 29.1942C55.1119 29.5009 54.7079 29.7412 54.2375 29.9151C53.7774 30.0889 53.2763 30.1759 52.7343 30.1759ZM50.0347 25.5435H55.4953C55.4544 25.022 55.3062 24.5618 55.0505 24.163C54.7949 23.7642 54.4676 23.4523 54.0688 23.2273C53.67 23.0023 53.2303 22.8898 52.7497 22.8898C52.2793 22.8898 51.8447 23.0023 51.4458 23.2273C51.047 23.4523 50.7198 23.7642 50.4641 24.163C50.2187 24.5618 50.0756 25.022 50.0347 25.5435ZM70.3254 30.0225H68.9755V25.5435C68.9755 24.705 68.8375 24.0863 68.5614 23.6875C68.2955 23.2887 67.8967 23.0892 67.3649 23.0892C66.823 23.0892 66.3321 23.2887 65.8924 23.6875C65.4527 24.0761 65.1408 24.5822 64.9567 25.206V30.0225H63.6069V25.5435C63.6069 24.6947 63.4739 24.0761 63.2081 23.6875C62.9422 23.2887 62.5434 23.0892 62.0116 23.0892C61.4799 23.0892 60.989 23.2835 60.5391 23.6721C60.0994 24.0505 59.7875 24.5567 59.6034 25.1907V30.0225H58.2536V22.0155H59.4807V23.7335C59.8079 23.1404 60.2323 22.6853 60.7538 22.3683C61.2754 22.0411 61.8634 21.8775 62.5178 21.8775C63.1825 21.8775 63.7143 22.0615 64.1131 22.4297C64.5119 22.7876 64.7573 23.2529 64.8493 23.8255C65.2073 23.1915 65.6419 22.7109 66.1532 22.3837C66.6645 22.0462 67.2473 21.8775 67.9018 21.8775C68.362 21.8775 68.7454 21.9644 69.0522 22.1382C69.3692 22.3018 69.6198 22.537 69.8038 22.8438C69.9879 23.1404 70.1208 23.4932 70.2026 23.9022C70.2845 24.3113 70.3254 24.7561 70.3254 25.2367V30.0225ZM76.535 30.1759C75.9112 30.1759 75.3437 30.0225 74.8324 29.7157C74.3211 29.4089 73.9172 29.0101 73.6206 28.5192V30.0225H72.4242V18.825H73.774V23.6108C74.1114 23.0892 74.5256 22.67 75.0164 22.353C75.5073 22.036 76.0799 21.8775 76.7344 21.8775C77.2866 21.8775 77.7826 21.9951 78.2223 22.2303C78.662 22.4552 79.0353 22.7671 79.342 23.1659C79.659 23.5545 79.8993 23.9994 80.063 24.5004C80.2368 24.9913 80.3237 25.5077 80.3237 26.0497C80.3237 26.6121 80.2266 27.1438 80.0323 27.6449C79.8482 28.1358 79.5823 28.5755 79.2347 28.9641C78.887 29.3424 78.4831 29.639 78.0229 29.8537C77.5729 30.0685 77.077 30.1759 76.535 30.1759ZM76.1975 29.0101C76.5964 29.0101 76.9645 28.9283 77.302 28.7647C77.6394 28.601 77.9308 28.3812 78.1763 28.1051C78.4217 27.829 78.6109 27.512 78.7438 27.1541C78.8768 26.7962 78.9432 26.428 78.9432 26.0497C78.9432 25.5281 78.8307 25.0373 78.6058 24.5771C78.391 24.117 78.0842 23.7488 77.6854 23.4727C77.2968 23.1864 76.8418 23.0432 76.3203 23.0432C75.9419 23.0432 75.5891 23.1302 75.2619 23.304C74.9346 23.4778 74.6432 23.7079 74.3875 23.9942C74.1421 24.2703 73.9376 24.5771 73.774 24.9146V27.2308C73.8251 27.4864 73.9325 27.7216 74.0961 27.9364C74.2597 28.1511 74.4591 28.3403 74.6943 28.5039C74.9295 28.6573 75.1749 28.78 75.4306 28.872C75.6965 28.9641 75.9521 29.0101 76.1975 29.0101ZM85.5244 30.1759C84.921 30.1759 84.3688 30.0685 83.8678 29.8537C83.3769 29.6288 82.9474 29.3271 82.5793 28.9487C82.2214 28.5601 81.9402 28.1153 81.7356 27.6142C81.5413 27.1132 81.4442 26.5814 81.4442 26.019C81.4442 25.2623 81.618 24.572 81.9657 23.9482C82.3134 23.3244 82.794 22.8234 83.4076 22.445C84.0314 22.0666 84.7421 21.8775 85.5397 21.8775C86.3476 21.8775 87.048 22.0718 87.6411 22.4603C88.2445 22.8387 88.7098 23.3398 89.037 23.9636C89.3744 24.5771 89.5432 25.2418 89.5432 25.9576C89.5432 26.0599 89.5381 26.1622 89.5278 26.2644C89.5278 26.3564 89.5227 26.428 89.5125 26.4792H82.8707C82.9116 27.0007 83.0548 27.466 83.3002 27.875C83.5559 28.2738 83.8831 28.5908 84.2819 28.826C84.6807 29.051 85.1102 29.1635 85.5704 29.1635C86.0612 29.1635 86.5214 29.0408 86.9509 28.7953C87.3906 28.5499 87.6923 28.2278 87.8559 27.829L89.0216 28.1511C88.8478 28.5397 88.587 28.8874 88.2394 29.1942C87.9019 29.5009 87.498 29.7412 87.0276 29.9151C86.5674 30.0889 86.0663 30.1759 85.5244 30.1759ZM82.8247 25.5435H88.2854C88.2445 25.022 88.0962 24.5618 87.8405 24.163C87.5849 23.7642 87.2577 23.4523 86.8589 23.2273C86.46 23.0023 86.0203 22.8898 85.5397 22.8898C85.0693 22.8898 84.6347 23.0023 84.2359 23.2273C83.8371 23.4523 83.5098 23.7642 83.2542 24.163C83.0088 24.5618 82.8656 25.022 82.8247 25.5435ZM95.2772 23.1966C94.6023 23.2068 94.0041 23.3807 93.4825 23.7181C92.9712 24.0454 92.6082 24.5004 92.3935 25.0833V30.0225H91.0436V22.0155H92.3014V23.8715C92.5775 23.3193 92.9406 22.8745 93.3905 22.537C93.8507 22.1894 94.3313 21.9951 94.8324 21.9542C94.9346 21.9542 95.0215 21.9542 95.0931 21.9542C95.1647 21.9542 95.2261 21.9593 95.2772 21.9695V23.1966ZM105.581 28.7953V30.0225H100.075V28.7953H102.253V22.8131C102.161 22.9359 102.018 23.0688 101.823 23.212C101.629 23.3449 101.409 23.4727 101.164 23.5954C100.918 23.7181 100.673 23.8204 100.428 23.9022C100.182 23.9738 99.9572 24.0096 99.7527 24.0096V22.7211C99.9777 22.7211 100.223 22.6598 100.489 22.537C100.765 22.4041 101.031 22.2507 101.287 22.0769C101.542 21.903 101.757 21.7394 101.931 21.586C102.115 21.4326 102.222 21.3253 102.253 21.2639H103.633V28.7953H105.581ZM106.505 25.022C106.505 24.3266 106.674 23.6977 107.011 23.1353C107.359 22.5626 107.829 22.1076 108.422 21.7701C109.015 21.4326 109.675 21.2639 110.401 21.2639C111.188 21.2639 111.873 21.4531 112.456 21.8315C113.049 22.1996 113.51 22.7365 113.837 23.442C114.174 24.1374 114.343 24.9759 114.343 25.9576C114.343 27.3893 114.174 28.5806 113.837 29.5316C113.499 30.4826 113.024 31.1933 112.41 31.6637C111.797 32.1444 111.081 32.3847 110.263 32.3847C109.557 32.3847 108.913 32.2108 108.33 31.8631C107.758 31.5257 107.308 31.0553 106.98 30.452L107.809 29.639C108.034 30.1094 108.366 30.4877 108.806 30.7741C109.256 31.0604 109.746 31.2036 110.278 31.2036C110.841 31.2036 111.326 31.0348 111.735 30.6974C112.155 30.3599 112.477 29.8742 112.702 29.2402C112.937 28.6062 113.06 27.8392 113.07 26.9393C112.927 27.287 112.712 27.5938 112.426 27.8597C112.15 28.1255 111.827 28.3301 111.459 28.4732C111.091 28.6164 110.692 28.688 110.263 28.688C109.568 28.688 108.934 28.5244 108.361 28.1971C107.788 27.8699 107.333 27.4302 106.996 26.878C106.668 26.3258 106.505 25.7071 106.505 25.022ZM110.386 22.4297C109.915 22.4297 109.481 22.5473 109.082 22.7825C108.693 23.0177 108.381 23.3296 108.146 23.7181C107.911 24.1067 107.793 24.5413 107.793 25.022C107.793 25.4924 107.911 25.9218 108.146 26.3104C108.381 26.699 108.693 27.0109 109.082 27.2461C109.481 27.4813 109.915 27.5989 110.386 27.5989C110.866 27.5989 111.301 27.4813 111.689 27.2461C112.078 27.0109 112.39 26.699 112.625 26.3104C112.86 25.9218 112.978 25.4924 112.978 25.022C112.978 24.5516 112.86 24.1221 112.625 23.7335C112.39 23.3347 112.073 23.0177 111.674 22.7825C111.285 22.5473 110.856 22.4297 110.386 22.4297ZM116.12 31.2649L116.427 29.8997H115.967V28.3045H117.24V29.8997L116.78 31.2649H116.12ZM122.76 30.0225C122.76 29.6134 122.791 29.2299 122.852 28.872C122.924 28.5141 123.046 28.1716 123.22 27.8443C123.404 27.5171 123.66 27.2052 123.987 26.9087C124.314 26.6019 124.739 26.3053 125.26 26.019C125.567 25.8451 125.874 25.6815 126.181 25.5281C126.498 25.3748 126.789 25.2111 127.055 25.0373C127.331 24.8635 127.551 24.6743 127.715 24.4698C127.878 24.255 127.96 24.0096 127.96 23.7335C127.96 23.4983 127.888 23.2733 127.745 23.0586C127.612 22.8336 127.408 22.6546 127.132 22.5217C126.866 22.3785 126.533 22.307 126.135 22.307C125.828 22.307 125.547 22.3479 125.291 22.4297C125.046 22.5115 124.821 22.6189 124.616 22.7518C124.422 22.8745 124.248 23.0074 124.095 23.1506C123.951 23.2835 123.829 23.4063 123.726 23.5187L122.883 22.5677C122.965 22.4757 123.103 22.353 123.297 22.1996C123.491 22.036 123.737 21.8724 124.033 21.7087C124.33 21.5451 124.672 21.4071 125.061 21.2946C125.46 21.1719 125.894 21.1105 126.365 21.1105C126.999 21.1105 127.541 21.223 127.991 21.448C128.451 21.6627 128.804 21.9593 129.049 22.3376C129.294 22.7058 129.417 23.1199 129.417 23.5801C129.417 23.9789 129.33 24.3266 129.156 24.6231C128.993 24.9197 128.778 25.1805 128.512 25.4054C128.257 25.6304 127.986 25.8247 127.699 25.9883C127.423 26.1417 127.173 26.2746 126.948 26.3871C126.487 26.6121 126.094 26.8166 125.767 27.0007C125.439 27.1848 125.168 27.3688 124.954 27.5529C124.749 27.7267 124.58 27.9108 124.447 28.1051C124.325 28.2994 124.233 28.5295 124.171 28.7953H129.586V30.0225H122.76ZM138.899 25.5281C138.899 26.428 138.73 27.2308 138.393 27.9364C138.055 28.6317 137.595 29.1788 137.012 29.5776C136.429 29.9764 135.765 30.1759 135.018 30.1759C134.272 30.1759 133.607 29.9764 133.024 29.5776C132.441 29.1788 131.981 28.6317 131.644 27.9364C131.306 27.2308 131.138 26.428 131.138 25.5281C131.138 24.6283 131.306 23.8306 131.644 23.1353C131.981 22.4297 132.441 21.8775 133.024 21.4787C133.607 21.0696 134.272 20.8651 135.018 20.8651C135.765 20.8651 136.429 21.0696 137.012 21.4787C137.595 21.8775 138.055 22.4297 138.393 23.1353C138.73 23.8306 138.899 24.6283 138.899 25.5281ZM137.534 25.5281C137.534 24.8532 137.427 24.2601 137.212 23.7488C136.997 23.2375 136.7 22.8387 136.322 22.5524C135.944 22.2661 135.509 22.1229 135.018 22.1229C134.517 22.1229 134.078 22.2661 133.699 22.5524C133.321 22.8387 133.024 23.2375 132.809 23.7488C132.595 24.2601 132.487 24.8532 132.487 25.5281C132.487 26.2031 132.595 26.7962 132.809 27.3075C133.024 27.8085 133.321 28.2022 133.699 28.4886C134.078 28.7749 134.517 28.9181 135.018 28.9181C135.509 28.9181 135.944 28.7749 136.322 28.4886C136.7 28.2022 136.997 27.8085 137.212 27.3075C137.427 26.7962 137.534 26.2031 137.534 25.5281ZM146.266 28.7953V30.0225H140.759V28.7953H142.937V22.8131C142.845 22.9359 142.702 23.0688 142.508 23.212C142.313 23.3449 142.094 23.4727 141.848 23.5954C141.603 23.7181 141.357 23.8204 141.112 23.9022C140.866 23.9738 140.641 24.0096 140.437 24.0096V22.7211C140.662 22.7211 140.907 22.6598 141.173 22.537C141.449 22.4041 141.715 22.2507 141.971 22.0769C142.226 21.903 142.441 21.7394 142.615 21.586C142.799 21.4326 142.906 21.3253 142.937 21.2639H144.318V28.7953H146.266ZM147.189 25.022C147.189 24.3266 147.358 23.6977 147.695 23.1353C148.043 22.5626 148.513 22.1076 149.106 21.7701C149.7 21.4326 150.359 21.2639 151.085 21.2639C151.873 21.2639 152.558 21.4531 153.141 21.8315C153.734 22.1996 154.194 22.7365 154.521 23.442C154.859 24.1374 155.027 24.9759 155.027 25.9576C155.027 27.3893 154.859 28.5806 154.521 29.5316C154.184 30.4826 153.708 31.1933 153.095 31.6637C152.481 32.1444 151.765 32.3847 150.947 32.3847C150.242 32.3847 149.597 32.2108 149.014 31.8631C148.442 31.5257 147.992 31.0553 147.665 30.452L148.493 29.639C148.718 30.1094 149.05 30.4877 149.49 30.7741C149.94 31.0604 150.431 31.2036 150.962 31.2036C151.525 31.2036 152.011 31.0348 152.42 30.6974C152.839 30.3599 153.161 29.8742 153.386 29.2402C153.621 28.6062 153.744 27.8392 153.754 26.9393C153.611 27.287 153.396 27.5938 153.11 27.8597C152.834 28.1255 152.512 28.3301 152.144 28.4732C151.775 28.6164 151.377 28.688 150.947 28.688C150.252 28.688 149.618 28.5244 149.045 28.1971C148.472 27.8699 148.017 27.4302 147.68 26.878C147.353 26.3258 147.189 25.7071 147.189 25.022ZM151.07 22.4297C150.599 22.4297 150.165 22.5473 149.766 22.7825C149.377 23.0177 149.066 23.3296 148.83 23.7181C148.595 24.1067 148.478 24.5413 148.478 25.022C148.478 25.4924 148.595 25.9218 148.83 26.3104C149.066 26.699 149.377 27.0109 149.766 27.2461C150.165 27.4813 150.599 27.5989 151.07 27.5989C151.55 27.5989 151.985 27.4813 152.374 27.2461C152.762 27.0109 153.074 26.699 153.309 26.3104C153.544 25.9218 153.662 25.4924 153.662 25.022C153.662 24.5516 153.544 24.1221 153.309 23.7335C153.074 23.3347 152.757 23.0177 152.358 22.7825C151.97 22.5473 151.54 22.4297 151.07 22.4297Z" fill="white"/>
</svg>
